<svg width="24" height="24" viewBox="0 0 24 24" fill="none" xmlns="http://www.w3.org/2000/svg">
<path d="M7.36444 4.26665L14.8711 12L7.36444 19.7333C7.12795 19.9856 6.99709 20.3235 7.00005 20.6741C7.00301 21.0248 7.13955 21.3603 7.38026 21.6083C7.62097 21.8562 7.9466 21.9969 8.287 21.9999C8.62741 22.003 8.95535 21.8682 9.20021 21.6246L17.6209 12.9496C17.7421 12.8252 17.8381 12.6772 17.9032 12.5141C17.9683 12.3511 18.0012 12.1763 18 12C18.0008 11.8238 17.9678 11.6491 17.9027 11.4861C17.8376 11.3231 17.7418 11.175 17.6209 11.0504L9.20021 2.37545C8.95535 2.13182 8.6274 1.997 8.287 2.00005C7.94659 2.0031 7.62097 2.14376 7.38026 2.39174C7.13954 2.63972 7.00301 2.97518 7.00005 3.32587C6.99709 3.67655 7.12795 4.0144 7.36444 4.26665Z" fill="white"/>
</svg>
