<svg width="16" height="9" viewBox="0 0 16 9" fill="none" xmlns="http://www.w3.org/2000/svg">
<path d="M14.1867 0.298181L8 6.44L1.81332 0.298181C1.61152 0.104687 1.34124 -0.00238005 1.06069 4.01551e-05C0.780144 0.00246036 0.511777 0.114174 0.313392 0.31112C0.115008 0.508066 0.00247833 0.774487 4.04484e-05 1.053C-0.00239744 1.33151 0.105451 1.59984 0.300359 1.80017L7.24031 8.6898C7.33983 8.78902 7.45827 8.86755 7.58871 8.9208C7.71914 8.97406 7.85897 9.00097 8 8.99997C8.14099 9.00068 8.28073 8.97363 8.41112 8.92039C8.54152 8.86715 8.65999 8.78878 8.75969 8.6898L15.6996 1.80017C15.8945 1.59984 16.0024 1.33151 16 1.053C15.9975 0.774487 15.885 0.508066 15.6866 0.31112C15.4882 0.114174 15.2199 0.00246036 14.9393 4.01551e-05C14.6588 -0.00238005 14.3885 0.104687 14.1867 0.298181Z" fill="black"/>
</svg>
