<svg width="20" height="21" viewBox="0 0 20 21" fill="none" xmlns="http://www.w3.org/2000/svg">
<path d="M8.15357 15.337L4 16.5L5.163 12.3464L12.7687 4.77771C12.8546 4.6898 12.9573 4.61995 13.0706 4.57226C13.1839 4.52457 13.3057 4.5 13.4286 4.5C13.5516 4.5 13.6733 4.52457 13.7866 4.57226C13.8999 4.61995 14.0026 4.6898 14.0886 4.77771L15.7223 6.42068C15.8088 6.50648 15.8775 6.60858 15.9244 6.72105C15.9712 6.83353 15.9953 6.95417 15.9953 7.07602C15.9953 7.19787 15.9712 7.31852 15.9244 7.431C15.8775 7.54347 15.8088 7.64556 15.7223 7.73136L8.15357 15.337Z" stroke="#444444" stroke-linecap="round" stroke-linejoin="round"/>
</svg>
