<svg width="12" height="12" viewBox="0 0 12 12" fill="none" xmlns="http://www.w3.org/2000/svg">
<path d="M10.767 8.87831C11.1659 8.10227 11.3743 7.2424 11.375 6.36983C11.375 3.33735 8.90753 0.869873 5.87505 0.869873C2.84257 0.869873 0.375092 3.33735 0.375092 6.36983C0.375092 9.40231 2.84257 11.8698 5.87505 11.8698C6.74604 11.8698 7.60904 11.6603 8.38403 11.2623L10.754 11.8548C10.8377 11.8759 10.9255 11.8748 11.0086 11.8518C11.0918 11.8287 11.1676 11.7845 11.2285 11.7233C11.2896 11.6622 11.3338 11.5864 11.3569 11.5031C11.3799 11.4199 11.381 11.3321 11.36 11.2483L10.767 8.87831ZM9.75052 8.93331L10.1875 10.6823L8.43853 10.2448C8.31489 10.2143 8.18427 10.2318 8.07303 10.2938C7.40179 10.6709 6.64495 10.8692 5.87505 10.8698C3.39357 10.8698 1.37508 8.85081 1.37508 6.36983C1.37508 3.88885 3.39357 1.86987 5.87505 1.86987C8.35653 1.86987 10.375 3.88885 10.375 6.36983C10.3743 7.1395 10.1762 7.89611 9.79952 8.56731C9.73684 8.67851 9.7193 8.80954 9.75052 8.93331Z" fill="#444444"/>
</svg>
