<svg width="12" height="12" viewBox="0 0 12 12" fill="none" xmlns="http://www.w3.org/2000/svg">
<path d="M11.8243 5.93781L7.02427 1.0488C6.94036 0.963361 6.83346 0.905178 6.71709 0.881609C6.60072 0.858039 6.4801 0.870141 6.37048 0.916385C6.26085 0.962629 6.16716 1.04094 6.10122 1.14141C6.03529 1.24189 6.00009 1.36002 6.00006 1.48087V3.64731C4.36102 3.8018 2.83757 4.57369 1.72783 5.81193C0.618099 7.05018 0.00196306 8.66564 0 10.3422V11.2589C9.47145e-05 11.3857 0.0389462 11.5094 0.111166 11.6128C0.183385 11.7161 0.285393 11.794 0.40304 11.8357C0.520687 11.8773 0.648142 11.8806 0.767726 11.8452C0.88731 11.8097 0.993096 11.7372 1.07041 11.6378C1.65824 10.9258 2.37948 10.3403 3.192 9.9154C4.00452 9.49054 4.89203 9.23487 5.80266 9.16333C5.83266 9.15966 5.90766 9.15355 6.00006 9.14744V11.2589C6.00009 11.3797 6.03529 11.4979 6.10122 11.5983C6.16716 11.6988 6.26085 11.7771 6.37048 11.8234C6.4801 11.8696 6.60072 11.8817 6.71709 11.8581C6.83346 11.8346 6.94036 11.7764 7.02427 11.6909L11.8243 6.80194C11.9368 6.68734 12 6.53192 12 6.36987C12 6.20782 11.9368 6.05241 11.8243 5.93781ZM7.20008 9.78362V8.50881C7.20008 8.34673 7.13686 8.19129 7.02434 8.07668C6.91182 7.96207 6.7592 7.89769 6.60007 7.89769C6.44707 7.89769 5.82246 7.92824 5.66286 7.94963C4.04576 8.10139 2.50648 8.72716 1.23121 9.75123C1.37596 8.40335 2.00375 7.15721 2.99436 6.25141C3.98498 5.34561 5.26882 4.8438 6.60007 4.84206C6.7592 4.84206 6.91182 4.77767 7.02434 4.66306C7.13686 4.54846 7.20008 4.39301 7.20008 4.23093V2.95613L10.5517 6.36987L7.20008 9.78362Z" fill="#444444"/>
</svg>
