<svg width="16" height="9" viewBox="0 0 16 9" fill="none" xmlns="http://www.w3.org/2000/svg">
<path d="M1.81332 8.70182L8 2.56L14.1867 8.70182C14.3885 8.89531 14.6588 9.00238 14.9393 8.99996C15.2199 8.99754 15.4882 8.88583 15.6866 8.68888C15.885 8.49193 15.9975 8.22551 16 7.947C16.0024 7.66849 15.8945 7.40016 15.6996 7.19983L8.75969 0.310197C8.66017 0.210983 8.54173 0.132454 8.41129 0.0791977C8.28086 0.0259416 8.14104 -0.000973092 8 2.59204e-05C7.85901 -0.000678368 7.71927 0.0263717 7.58888 0.0796109C7.45848 0.13285 7.34001 0.211222 7.24031 0.310197L0.300357 7.19982C0.10545 7.40016 -0.00239866 7.66848 3.91949e-05 7.947C0.00247705 8.22551 0.115005 8.49193 0.31339 8.68888C0.511775 8.88582 0.780142 8.99754 1.06069 8.99996C1.34124 9.00238 1.61152 8.89531 1.81332 8.70182Z" fill="black"/>
</svg>
